<?xml version="1.0" encoding="UTF-8" standalone="no"?>
<svg
   xmlns:dc="http://purl.org/dc/elements/1.1/"
   xmlns:cc="http://creativecommons.org/ns#"
   xmlns:rdf="http://www.w3.org/1999/02/22-rdf-syntax-ns#"
   xmlns:svg="http://www.w3.org/2000/svg"
   xmlns="http://www.w3.org/2000/svg"
   viewBox="0 0 354.33188 67.722626"
   height="67.722626"
   width="354.33188"
   xml:space="preserve"
   version="1.1"
   id="svg4155"><metadata
     id="metadata4161"><rdf:RDF><cc:Work
         rdf:about=""><dc:format>image/svg+xml</dc:format><dc:type
           rdf:resource="http://purl.org/dc/dcmitype/StillImage" /><dc:title></dc:title></cc:Work></rdf:RDF></metadata><defs
     id="defs4159" /><g
     transform="matrix(1.25,0,0,-1.25,-38.308125,106.02925)"
     id="g4163"><g
       transform="scale(0.1,0.1)"
       id="g4165"><path
         id="path4167"
         style="fill:#dd1b2d;fill-opacity:1;fill-rule:nonzero;stroke:none"
         d="m 1435.59,609.895 c 0,0 0,-21.055 0.02,-31.075 2.91,5.743 22.07,38.196 60.54,38.196 l 11.92,0 0,-53.625 -12.19,0 c -35.29,0 -54.84,-25.957 -54.84,-58.286 l 0,-119.328 -62.95,0 0,224.118 57.5,0" /><path
         id="path4169"
         style="fill:#dd1b2d;fill-opacity:1;fill-rule:nonzero;stroke:none"
         d="m 2093.31,582.707 0,27.188 57.48,0 0,-303.43 -63.09,0 0,79.312 -65.18,0 c -66.21,0 -117.75,51.739 -117.75,115.571 0,66.007 54.06,115.668 114.24,115.668 48.85,0 74.3,-34.309 74.3,-34.309 z m -5.61,-81.867 c 0,33.996 -28.12,61.351 -62.54,61.351 -33.92,0 -61.5,-25.851 -62.5,-59.488 -1.01,-34.289 26.25,-63.215 62.5,-63.215 l 62.54,0.024 0,61.328" /><path
         id="path4171"
         style="fill:#dd1b2d;fill-opacity:1;fill-rule:evenodd;stroke:none"
         d="m 1315.57,692.238 0,-53.828 -62.95,0 0,53.828 62.95,0 z m 0,-82.343 0,-224.118 -62.95,0 0,224.118 62.95,0" /><path
         id="path4173"
         style="fill:#dd1b2d;fill-opacity:1;fill-rule:nonzero;stroke:none"
         d="m 1120.78,385.777 0,101.25 -113.2,0 0,-101.25 -63.725,0 0.071,178.239 c 0,70.742 60.894,128.222 136.284,128.222 l 104.3,0 0,-306.461 -63.73,0 z m -40.57,252.633 c -40.05,0 -72.61,-30.594 -72.61,-68.504 l 0,-32.004 113.17,0 0.01,100.508 -40.57,0" /><path
         id="path4175"
         style="fill:#dd1b2d;fill-opacity:1;fill-rule:evenodd;stroke:none"
         d="m 1859.91,609.895 0,-224.118 -62.95,0 0,224.118 62.95,0 z m 0,82.343 0,-53.828 -62.95,0 0,53.828 62.95,0" /><path
         id="path4177"
         style="fill:#dd1b2d;fill-opacity:1;fill-rule:evenodd;stroke:none"
         d="m 2556.33,609.895 0,-224.118 -62.95,0 0,224.118 62.95,0 z m 0,82.343 0,-53.828 -62.95,0 0,53.828 62.95,0" /><path
         id="path4179"
         style="fill:#dd1b2d;fill-opacity:1;fill-rule:evenodd;stroke:none"
         d="m 2206.33,609.895 62.93,0 0,-125.25 c 0,-34.137 25.12,-52.34 49.55,-52.34 23.6,0 51.02,15.64 51.02,52.332 l 0,125.258 62.93,0 0,-224.196 -57.5,0 0,27.149 -0.96,-1.09 c -18.28,-20.754 -44,-33.164 -73.71,-33.164 -48.3,0 -94.2,39.527 -94.2,96.824 l -0.06,134.477" /><path
         id="path4181"
         style="fill:#dd1b2d;fill-opacity:1;fill-rule:nonzero;stroke:none"
         d="m 1673.34,692.238 0,-252.726 82.04,0 0,-53.586 -145.77,-0.149 0,306.461 63.73,0" /><path
         id="path4183"
         style="fill:#dd1b2d;fill-opacity:1;fill-rule:nonzero;stroke:none"
         d="m 2789.65,412.957 0,-27.168 57.48,0 0,306.449 -63.08,0 0,-82.343 -65.18,0 c -66.21,0 -117.73,-51.747 -117.73,-115.582 0,-65.997 54.04,-115.653 114.22,-115.653 48.84,0 74.29,34.297 74.29,34.297 z m -5.6,81.863 c 0,-33.98 -28.13,-61.328 -62.54,-61.328 -33.91,0 -61.49,25.844 -62.48,59.477 -1.04,34.289 26.23,63.207 62.48,63.207 l 62.54,-0.02 0,-61.336" /><path
         id="path4185"
         style="fill:#dd1b2d;fill-opacity:1;fill-rule:nonzero;stroke:none"
         d="m 3018.68,378.594 c -70,0 -126.78,53.379 -126.78,119.215 0,65.847 56.72,119.234 126.72,119.234 70.04,0 122.5,-53.438 122.5,-119.234 0,-6.485 -0.24,-12.754 -1.1,-20.211 l -187.79,-0.024 c 9.36,-27.793 34.14,-47.703 66.39,-47.703 29.84,0 48.05,9.246 63.05,26.746 l 45.29,-29.422 c -24.57,-29.933 -62.27,-48.601 -108.28,-48.601 z m -66.29,139.933 128.45,0 c -9.12,27.774 -30.11,47.219 -62.22,47.219 -32.19,0 -57.11,-19.836 -66.23,-47.219" /><path
         id="path4187"
         style="fill:#3c60a5;fill-opacity:1;fill-rule:nonzero;stroke:none"
         d="m 577.012,692.25 c 63.277,0 114.566,-51.305 114.566,-114.566 l 0,-114.571 -114.566,0 c -63.274,0 -114.571,51.289 -114.571,114.571 0,63.261 51.297,114.566 114.571,114.566 z m 191.89,-306.48 -191.898,0 c -105.996,0 -191.91,85.918 -191.91,191.894 0,106 85.914,191.918 191.91,191.918 105.98,0 191.898,-85.918 191.898,-191.918 l 0,-191.894 z m -191.543,462.464 -270.894,0 0,-270.902 c 0,-149.629 121.285,-270.879 270.894,-270.879 149.61,0 270.899,121.25 270.899,270.879 0,149.609 -121.289,270.902 -270.899,270.902" /></g></g></svg>