<?xml version="1.0" encoding="UTF-8" standalone="no"?>
<!-- Created with Inkscape (http://www.inkscape.org/) -->

<svg
   xmlns:dc="http://purl.org/dc/elements/1.1/"
   xmlns:cc="http://creativecommons.org/ns#"
   xmlns:rdf="http://www.w3.org/1999/02/22-rdf-syntax-ns#"
   xmlns:svg="http://www.w3.org/2000/svg"
   xmlns="http://www.w3.org/2000/svg"
   xmlns:sodipodi="http://sodipodi.sourceforge.net/DTD/sodipodi-0.dtd"
   xmlns:inkscape="http://www.inkscape.org/namespaces/inkscape"
   version="1.1"
   width="333"
   height="53.163425"
   id="svg2"
   xml:space="preserve"
   inkscape:version="0.48.0 r9654"
   sodipodi:docname="Braskem_Logo.svg"><metadata
     id="metadata21"><rdf:RDF><cc:Work
         rdf:about=""><dc:format>image/svg+xml</dc:format><dc:type
           rdf:resource="http://purl.org/dc/dcmitype/StillImage" /></cc:Work></rdf:RDF></metadata><sodipodi:namedview
     pagecolor="#ffffff"
     bordercolor="#666666"
     borderopacity="1"
     objecttolerance="10"
     gridtolerance="10"
     guidetolerance="10"
     inkscape:pageopacity="0"
     inkscape:pageshadow="2"
     inkscape:window-width="640"
     inkscape:window-height="480"
     id="namedview19"
     showgrid="false"
     fit-margin-top="0"
     fit-margin-left="0"
     fit-margin-right="0"
     fit-margin-bottom="0"
     inkscape:zoom="1.2972973"
     inkscape:cx="167"
     inkscape:cy="26.581"
     inkscape:window-x="0"
     inkscape:window-y="0"
     inkscape:window-maximized="0"
     inkscape:current-layer="svg2" /><defs
     id="defs6"><clipPath
       id="clipPath18"><path
         d="m 0,0 595.276,0 0,841.89 L 0,841.89 0,0 z"
         id="path20"
         inkscape:connector-curvature="0" /></clipPath><clipPath
       id="clipPath26"><path
         d="m 28.346,287.223 538.583,0 0,526.321 -538.583,0 0,-526.321 z"
         id="path28"
         inkscape:connector-curvature="0" /></clipPath><clipPath
       id="clipPath34"><path
         d="m 3.862,-340.318 0,737.04 737.039,0 0,-737.04 -737.039,0 z"
         id="path36"
         inkscape:connector-curvature="0" /></clipPath></defs><g
     transform="matrix(1.25,0,0,-1.25,-18,71.582376)"
     id="g12"><path
       d="M 14.4,52.390961 14.4,19.232182 31.81821,36.016528 14.4,52.390961 z"
       id="path62"
       style="fill:#00aeef;fill-opacity:1;fill-rule:nonzero;stroke:none"
       inkscape:connector-curvature="0" /><path
       d="m 86.13038,43.998791 c 0,0 -4.74896,0.53788 -9.78587,0.37992 -5.00291,-0.15997 -10.16578,-1.773618 -10.16578,-1.773618 l 0,-27.046111 9.43794,0 0,24.100752 c 0,0 2.69142,0.569876 8.80409,-0.157965 l 1.70962,4.497022 z"
       id="path64"
       style="fill:#00529c;fill-opacity:1;fill-rule:nonzero;stroke:none"
       inkscape:connector-curvature="0" /><path
       d="m 133.03217,14.92512 c -4.93892,0 -9.12001,0.919799 -11.65346,2.089545 l 2.53345,4.149096 c 1.55166,-0.82382 4.43303,-1.645641 7.85429,-1.645641 3.89515,0 6.49058,1.709627 6.49058,4.053117 0,2.469463 -1.86759,3.643207 -6.17465,4.750966 -7.94827,2.089545 -9.59591,5.066897 -9.59591,8.042249 0,4.563006 5.28885,8.330189 13.33309,8.330189 4.68698,0 8.20222,-0.82382 10.92563,-2.027561 l -2.34349,-3.799173 c -1.23573,0.695848 -3.73719,1.613649 -6.68255,1.613649 -3.92714,0 -6.01669,-1.773614 -6.01669,-3.799173 0,-2.311497 2.56544,-3.483242 6.23864,-4.497021 8.17022,-2.247511 10.07181,-5.130883 10.07181,-8.488152 0,-4.716973 -5.79674,-8.77209 -14.98074,-8.77209"
       id="path66"
       style="fill:#00529c;fill-opacity:1;fill-rule:nonzero;stroke:none"
       inkscape:connector-curvature="0" /><path
       d="m 176.38673,15.401016 -14.02894,14.504842 -0.15797,0 0,-14.504842 -9.43794,0 0,41.864885 9.43794,0 0,-26.284277 0.15797,0 13.33309,13.175127 9.6599,0 -14.50684,-13.681017 16.21647,-15.074718 -10.67368,0 z"
       id="path68"
       style="fill:#00aeef;fill-opacity:1;fill-rule:nonzero;stroke:none"
       inkscape:connector-curvature="0" /><path
       d="m 271.26808,15.401016 0,20.425553 c 0,2.503455 -2.02756,4.68698 -7.09446,4.68698 -2.88137,0 -5.0669,-0.631863 -7.03047,-1.963573 l 0,-23.14896 -9.49993,0 0,20.585518 c 0,2.785394 -2.72541,4.591001 -7.88628,4.591001 -2.81739,0 -4.37105,-0.283939 -6.23865,-0.791828 l 0,-24.384691 -9.53192,0 0,27.204077 c 4.21108,1.393698 8.7401,2.089548 15.77057,2.089548 6.77652,0 10.67167,-1.361706 13.11114,-3.167313 2.81939,1.773614 7.09446,3.167313 13.49106,3.167313 9.97383,0 14.44086,-4.275072 14.44086,-8.836079 l 0,-20.457546 -9.53192,0 z"
       id="path70"
       style="fill:#00aeef;fill-opacity:1;fill-rule:nonzero;stroke:none"
       inkscape:connector-curvature="0" /><path
       d="m 60.14604,31.141589 c -1.8356,2.689414 -5.88472,4.465028 -11.98939,5.002911 5.40882,1.551662 8.69811,3.641207 10.0918,6.142662 0.85382,1.583659 0.9478,3.357269 0.31593,5.448819 -1.70962,5.79473 -12.14735,9.24598 -27.90192,9.24598 -5.12488,0 -10.15579,-0.47589 -14.48885,-1.42569 l 10.97761,-10.35574 0,6.84251 0,0.15796 0.56988,0.062 c 1.89759,0.096 5.85273,0.34792 10.43973,-0.032 7.08445,-0.63187 9.58391,-3.7052 9.58391,-6.39661 0,-2.881374 -1.3597,-5.384828 -3.73119,-6.872505 -2.11954,-1.297717 -5.75874,-2.659421 -6.26463,-2.849379 l 0,-0.125973 c 3.76518,-0.507889 6.92849,-2.059551 6.96048,-2.059551 0.062,-0.03199 5.34484,-2.723407 5.34484,-7.188435 l 0,-0.125973 c -0.12598,-5.480807 -5.63078,-6.684545 -10.97761,-7.126448 -4.77696,-0.411911 -9.86985,0.03199 -11.54549,0.189958 l -0.53788,0.06199 0,6.778524 -10.85164,-10.481718 c 4.55501,-0.823821 10.50371,-1.267724 16.86233,-1.267724 15.75257,0 26.1923,3.6732 27.89993,9.847856 0.72984,2.565441 0.47589,4.750966 -0.75784,6.526579"
       id="path72"
       style="fill:#00529c;fill-opacity:1;fill-rule:nonzero;stroke:none"
       inkscape:connector-curvature="0" /><path
       d="m 204.44662,19.264175 c 6.58657,0 10.16579,1.583655 10.16579,1.583655 l 2.05755,-3.991131 c -2.7554,-1.32971 -6.68254,-2.121538 -12.19334,-2.121538 -0.9178,0 -1.77362,0.03199 -2.62743,0.127972 -9.05803,0.727842 -15.99252,5.288849 -15.99252,14.818774 0,9.311972 6.52258,14.600824 15.99252,14.916754 l 0.82382,0 c 10.60769,0 15.67659,-5.096892 15.67659,-15.770568 l -16.50041,0 -8.10824,0 c 0,0 -0.032,-7.94827 8.10824,-9.373959 0.79183,-0.125973 1.64764,-0.189959 2.59743,-0.189959 m -2.59743,21.281367 c -1.3937,-0.06399 -7.60035,-0.663856 -8.20222,-8.328187 l 8.20222,0 8.17022,0 c 0,0 0.63386,8.328187 -7.91828,8.328187 l -0.25194,0 z"
       id="path74"
       style="fill:#00aeef;fill-opacity:1;fill-rule:nonzero;stroke:none"
       inkscape:connector-curvature="0" /><path
       d="m 102.18689,44.694641 c 8.64611,0 15.51862,-2.533451 15.51862,-9.911845 l 0,-17.830118 c -3.35727,-1.203738 -8.67811,-2.089545 -15.20269,-2.089545 -0.31593,0 -0.63386,0.03199 -0.9478,0.03199 -10.83164,0.157966 -16.21646,3.35527 -16.21646,8.738098 0,6.080676 6.8725,8.710103 16.21646,9.913841 2.3095,0.315932 4.74897,0.537883 7.25043,0.695849 l 0,1.521669 c 0,2.375482 -2.15353,4.305062 -7.25043,4.68498 -2.85137,0.189958 -6.62055,-0.06199 -11.43351,-1.01378 l 1.70963,4.593001 c 2.53345,0.37992 5.76475,0.63386 9.72388,0.66586 l 0.63187,0 z m -0.63187,-26.128314 c 0.50589,-0.02999 1.01178,-0.06399 1.54967,-0.06399 2.18552,0 4.30706,0.31993 5.70076,0.82582 l 0,11.843421 c -2.7554,-0.253944 -5.19287,-0.537882 -7.25043,-0.981786 -4.593,-0.981786 -7.25442,-2.723407 -7.25442,-6.334621 0,-3.387262 2.66142,-5.00291 7.25442,-5.288848"
       id="path76"
       style="fill:#00529c;fill-opacity:1;fill-rule:nonzero;stroke:none"
       inkscape:connector-curvature="0" /></g></svg>