<?xml version="1.0" encoding="utf-8"?>
<!-- Generator: Adobe Illustrator 16.0.4, SVG Export Plug-In . SVG Version: 6.00 Build 0)  -->
<!DOCTYPE svg PUBLIC "-//W3C//DTD SVG 1.1//EN" "http://www.w3.org/Graphics/SVG/1.1/DTD/svg11.dtd">
<svg version="1.1" id="Ebene_1" xmlns="http://www.w3.org/2000/svg" xmlns:xlink="http://www.w3.org/1999/xlink" x="0px" y="0px"
	 width="1024px" height="360px" viewBox="0 0 1024 360" enable-background="new 0 0 1024 360" xml:space="preserve">
<g>
	<path fill="#E3302B" d="M791.317,314.908c0.67-3.581,3.231-10.059,11.18-10.059c7.708,0,10.168,6.478,10.168,10.059H791.317z
		 M820.154,346.321c-2.46,0.567-4.586,1.455-10.51,1.455c-15.313,0-18.895-15.312-18.895-23.362v-3.13h30.634v-2.576
		c0-11.631-6.033-20.234-18.552-20.234c-14.207,0-20.802,10.176-20.802,26.057c0,19.666,9.506,29.622,25.94,29.622
		c4.92,0,8.938-0.567,12.184-1.572V346.321z M756.768,352.915h7.606v-46.843h15.313v-6.361h-15.313v-5.822
		c0-7.147,2.343-12.067,11.179-12.067c3.239,0,5.699,0.786,7.715,1.456v-6.827c-2.46-0.554-5.255-1.005-9.061-1.005
		c-13.298,0-17.439,8.167-17.439,16.886v7.38h-8.944v6.361h8.944V352.915z M727.371,285.839h10.059V275.78h-10.059V285.839z
		 M728.594,352.915h7.605v-53.204h-7.605V352.915z M682.988,352.915h36.333v-7.264h-27.613V275.78h-8.72V352.915z M619.609,352.915
		h7.599v-22.023c0-14.31,5.925-24.251,17.999-24.251v-8.167c-12.191,0-16.209,7.934-17.781,11.515h-0.218v-10.277h-7.599V352.915z
		 M571.42,326.306c0-13.29,4.36-21.456,12.97-21.456c8.72,0,13.196,8.166,13.196,21.456c0,13.422-4.477,21.471-13.196,21.471
		C575.78,347.776,571.42,339.728,571.42,326.306 M584.39,354.152c15.758,0,21.915-12.184,21.915-27.729
		c0-15.532-6.157-27.949-21.915-27.949c-15.655,0-21.688,12.417-21.688,27.949C562.701,341.969,568.734,354.152,584.39,354.152
		 M536.543,352.915h7.605v-46.843h15.313v-6.361h-15.313v-5.822c0-7.147,2.344-12.067,11.18-12.067c3.238,0,5.691,0.786,7.708,1.456
		v-6.827c-2.453-0.554-5.248-1.005-9.055-1.005c-13.305,0-17.438,8.167-17.438,16.886v7.38h-8.945v6.361h8.945V352.915z
		 M477.069,320.163c-4.25-2.241-9.615-4.018-9.615-8.385c0-3.799,4.247-6.929,10.732-6.929c5.364,0,10.619,1.791,12.409,2.46v-7.045
		c-2.46-0.554-6.819-1.791-12.522-1.791c-11.849,0-18.221,5.474-18.221,14.091c0,8.72,7.155,11.631,12.075,14.426l4.807,2.562
		c3.13,1.791,9.611,4.135,9.611,9.622c0,6.143-5.589,8.603-12.966,8.603c-6.038,0-12.41-2.343-13.752-2.794v6.929
		c2.125,0.669,7.602,2.241,14.535,2.241c12.409,0,19.786-5.487,19.786-16.1c0-9.17-6.82-12.3-12.41-15.211L477.069,320.163z
		 M421.179,314.908c0.669-3.581,3.243-10.059,11.179-10.059c7.711,0,10.171,6.478,10.171,10.059H421.179z M450.019,346.321
		c-2.456,0.567-4.582,1.455-10.506,1.455c-15.317,0-18.895-15.312-18.895-23.362v-3.13h30.63v-2.576
		c0-11.631-6.033-20.234-18.556-20.234c-14.2,0-20.794,10.176-20.794,26.057c0,19.666,9.502,29.622,25.936,29.622
		c4.92,0,8.945-0.567,12.184-1.572V346.321z M387.416,320.163c-4.247-2.241-9.615-4.018-9.615-8.385
		c0-3.799,4.25-6.929,10.732-6.929c5.368,0,10.623,1.791,12.409,2.46v-7.045c-2.456-0.554-6.819-1.791-12.519-1.791
		c-11.853,0-18.225,5.474-18.225,14.091c0,8.72,7.155,11.631,12.075,14.426l4.807,2.562c3.13,1.791,9.615,4.135,9.615,9.622
		c0,6.143-5.59,8.603-12.966,8.603c-6.037,0-12.409-2.343-13.752-2.794v6.929c2.125,0.669,7.603,2.241,14.535,2.241
		c12.406,0,19.786-5.487,19.786-16.1c0-9.17-6.82-12.3-12.41-15.211L387.416,320.163z M350.413,328.766
		c0,6.376-0.67,7.613-2.013,10.743c-2.234,5.139-7.602,8.268-12.409,8.268c-3.912,0-7.489-2.678-7.489-7.715
		c0-9.054,11.849-11.296,17.438-11.296H350.413z M350.635,352.915h7.38v-37.337c0-6.711-1.343-17.104-17.886-17.104
		c-14.535,0-19.007,8.167-19.116,14.877h8.494c0.56-4.148,2.238-8.501,10.844-8.501c4.025,0,8.498,1.456,9.728,7.38
		c0.335,1.791,0.335,7.599,0.335,10.176c-1.791,0.334-3.355,0.334-5.255,0.334c-9.28,0-25.376,4.135-25.376,16.536
		c0,9.506,5.59,14.877,14.309,14.877c9.724,0,14.979-5.706,16.322-8.282h0.222V352.915z M307.821,309.318h-26.384v7.264h17.661
		v26.057c-1.339,1.223-6.372,4.25-14.196,4.25c-18.112,0-20.681-20.132-20.681-35.11c0-13.974,3.69-29.957,19.338-29.957
		c11.07,0,14.87,8.05,14.87,14.979h9.84c0-12.854-9.505-22.242-24.819-22.242c-21.128,0-28.73,17.541-28.73,37.221
		c0,22.359,6.481,42.374,30.853,42.374c12.074,0,20.346-5.706,22.25-7.38V309.318z"/>
	<path fill="#013c88" d="M730.006,135.184c0-3.676,2.184-5.576,5.793-5.531l12.992-0.029c11.987-0.016,21.77,5.334,21.783,17.795
		c0.029,12.482-9.796,17.919-21.783,17.89l-18.741-0.028L730.006,135.184z M676.445,232.242h53.619l-0.015-51.817l16.325,0.029
		l30.08,51.729h54.93l-37.127-54.146c16.398-3.85,28.633-13.472,27.963-31.296c-0.553-14.797-10.706-27.192-34.31-31.472
		c-7.438-1.346-14.41-1.645-24.447-1.739h-70.053c-10.655,0.095-16.995,6.136-16.995,17.002L676.445,232.242z M663.308,130.161
		v-16.573l-92.957-0.006c-10.67,0-16.973,6.055-16.973,16.922v101.68l110.469,0.015v-16.405h-56.705v-35.579h54.915v-16.507h-54.915
		l0.044-28c0-3.683,2.184-5.59,5.801-5.546H663.308z M541.237,113.545h-55.154c-12.759,0-22.039,0.24-31.354,3.151
		c-13.156,4.112-21.486,13.094-22.145,24.397c-0.826,14.287,9.309,25.291,28.615,35.102c4.851,2.461,10.215,5.481,15.211,8.186
		c10.626,5.778,17.824,10.902,17.595,18.603c-0.313,10.554-10.426,12.548-22.708,12.592h-39.313v16.623c0,0,37.792,0.015,58.63,0
		c50.122-0.044,54.365-21.077,54.489-32.897c0.138-12.358-4.258-23.047-27.992-35.805c-10.852-5.853-19.641-10.961-26.428-15.161
		c-6.092-3.749-7.82-8.028-6.427-12.118c1.423-4.178,5.917-6.129,13.916-6.129h43.065V113.545z M426.878,113.588h-55.162
		c-12.759,0-22.039,0.153-31.354,3.072c-13.152,4.119-21.493,13.079-22.141,24.404c-0.826,14.271,9.309,25.291,28.611,35.088
		c4.844,2.46,10.219,5.502,15.211,8.199c10.63,5.764,17.828,10.888,17.595,18.603c-0.313,10.539-10.434,12.533-22.708,12.592
		h-38.895v16.608c0,0,37.374,0.015,58.215,0c50.111-0.043,54.369-21.062,54.496-32.883c0.116-12.358-4.28-23.047-28.003-35.82
		c-10.852-5.836-19.636-10.945-26.427-15.146c-6.088-3.763-7.817-8.028-6.423-12.133c1.423-4.163,5.91-6.136,13.913-6.136
		l43.072,0.015V113.588z M139.373,232.169h44.397V113.566h-46.544c-4.731-0.021-7.689,1.587-9.993,7.067l-28.792,66.76
		l-28.826-66.92c-2.176-5.103-4.509-6.929-12.402-6.907H5.006v118.603h27.253v-89.177l37.796,89.177h31.955l37.385-89.19
		L139.373,232.169z M260.275,130.146c-3.617-0.043-5.786,1.863-5.786,5.539l-0.051,28.021h54.907l0.007,16.492h-54.914l0.007,35.564
		h56.694v16.42l-110.495-0.015V130.488c0-10.866,6.339-16.922,16.991-16.922l92.976,0.008l0.007,16.572H260.275z"/>
	<path fill="#E3302B" d="M931.133,4.837c-48.59,0-87.95,39.383-87.95,87.95c0,48.575,39.36,87.958,87.95,87.958
		c48.575,0,87.936-39.383,87.936-87.958C1019.068,44.22,979.708,4.837,931.133,4.837"/>
</g>
<path fill="#FFFFFF" d="M931.089,165.605l-70.104-51.959h140.31L931.089,165.605z M924.466,19.976v80.279h-63.539L924.466,19.976z
	 M937.785,19.976l63.539,80.279h-63.539V19.976z"/>
</svg>
