<?xml version="1.0" encoding="UTF-8" standalone="no"?>
<svg
   data-name="Outline Icons"
   viewBox="0 0 500.00006 179"
   fill="none"
   class="main-logo"
   width="500.00006"
   height="179"
   version="1.1"
   id="svg4"
   xmlns="http://www.w3.org/2000/svg"
   xmlns:svg="http://www.w3.org/2000/svg">
  <defs
     id="defs8" />
  <path
     d="m 499.39229,41.404014 c -1.46977,-0.978021 -2.71977,1.263734 -3.31593,2.271975 a 106.45592,106.45592 0 0 1 -3.59889,5.697796 c -1.68132,2.472524 -3.60989,4.758236 -5.67307,6.920321 -1.58242,1.659339 -3.4478,3.18681 -5.45604,4.269226 -1.64011,0.884615 -3.49176,0.76923 -4.57142,-0.870878 -1.23901,-1.881866 -0.94231,-4.747247 -0.68407,-6.862629 1.02198,-8.423068 4.33241,-16.478003 6.48351,-24.642829 l 0.0385,-0.142857 c 0.46154,-1.763734 0.96978,-4.101644 -0.0604,-5.769224 -1.21978,-1.983515 -4.17307,-1.802196 -6.18406,-1.565933 -1.5467,0.184066 -3.07142,0.554945 -4.63186,0.637362 -1.08791,0.05495 -3.06868,0.10989 -3.74175,-0.972526 -0.50275,-0.810439 -0.0357,-1.934064 0.13736,-2.785711 0.20879,-1.035713 0.4011,-2.129119 0.0357,-3.153843 -0.81593,-2.280217 -3.62087,-2.346151 -5.50823,-1.52747 -1.97253,0.859889 -3.27472,2.752744 -3.72527,4.818675 -0.53846,2.458789 -0.30495,5.428566 1.07417,7.579662 0.59615,0.925823 1.86264,1.670328 1.88461,2.868129 0.008,0.398351 -0.13186,0.782966 -0.27197,1.153844 -3.29396,8.818672 -6.15659,17.931298 -11.31867,25.887333 -2.26374,3.494502 -4.96978,6.763729 -8.11812,9.491748 -2.02473,1.758239 -4.43407,3.486259 -7.12088,4.00549 -3.99175,0.774724 -6.04944,-0.521978 -7.07416,-4.027468 -0.93132,-3.008239 -0.69506,-7.293948 0.97527,-13.041194 l 0.1044,-0.120879 c 10.36262,-4.464281 17.71426,-8.565924 21.8736,-12.260975 4.32692,-3.914831 6.25274,-8.222518 4.8434,-12.923062 -0.63462,-2.203294 -2.11813,-3.826919 -4.21428,-4.903841 -5.55219,-2.857139 -12.50823,-0.07692 -17.10713,3.206041 -6.46977,4.620873 -11.7857,11.370866 -15.64284,18.340638 -2.9945,5.417576 -4.43406,11.288448 -6.31867,17.134596 -1.06044,3.288457 -2.16483,6.579662 -3.51923,9.760977 -0.51098,1.200548 -1.56593,4.587907 -3.12637,4.901094 -1.10714,0.192307 -1.59615,0.0055 -2.01922,-1.439559 -0.6511,-2.211536 0.1923,-8.6401 3.22252,-19.862615 l 6.95878,-26.057662 c 0.0385,-0.145604 -0.10714,-0.293956 -0.25824,-0.260989 l -13.12361,2.752744 -0.13736,0.131868 -3.9011,15.673059 c -5.7445,22.840633 -11.04394,33.096116 -15.04943,33.873588 -0.78571,0.173076 -1.32967,0.140109 -1.8489,-1.631867 -0.56868,-1.999997 -0.54395,-4.670324 0.32692,-8.068672 l 9.93681,-37.664792 c 0.0385,-0.142857 -0.1044,-0.288461 -0.25825,-0.258241 l -12.96701,2.692305 a 0.17582397,0.17582397 0 0 0 -0.14011,0.12912 l -5.38187,21.192284 c -2.55494,7.857134 -5.32142,14.552181 -8.32142,20.181295 -3.25823,5.890103 -5.51922,8.214276 -6.74449,8.456034 -0.82967,0.153846 -1.38736,0.104396 -1.95604,-1.80769 -0.5989,-1.986261 -0.0357,-7.379112 2.34889,-16.662069 l 7.53564,-28.840626 a 0.21977997,0.21977997 0 0 0 -0.25549,-0.26923 l -13.16208,2.774722 -0.14011,0.142857 -0.47252,2.395601 c -0.0275,0.151099 -0.21704,0.186813 -0.33517,0.06593 -3.72252,-3.763732 -11.14559,-1.818679 -15.14284,0.184066 -6.47252,3.241755 -10.78295,8.596144 -14.43679,14.884598 -2.7033,4.651094 -4.72253,9.62911 -5.38736,15.005478 a 0.18406572,0.18406572 0 0 1 -0.20055,0.15934 c -1.25549,-0.153846 -2.68406,-0.777471 -3.53022,-1.744503 -0.64011,-0.733516 -0.73901,-1.629119 -0.5412,-2.549448 0.74999,-3.491754 1.00549,-7.225266 0.76373,-10.785702 -0.18406,-2.711535 -0.69505,-5.527466 -2.03846,-7.923068 -0.86538,-1.571426 -2.64011,-2.722524 -4.21428,-2.423074 -4.50274,0.859889 -5.05769,7.035706 -4.79395,10.659329 a 22.472502,22.472502 0 0 0 2.12912,7.887353 c 0.71428,1.532965 1.7967,2.903843 2.2967,4.532962 0.58516,1.901097 -0.18681,3.653842 -0.67582,5.480763 a 78.260899,78.260899 0 0 1 -1.52198,5.032961 c -0.97253,2.848898 -2.12362,5.648345 -3.57692,8.282958 -1.98626,3.598897 -4.74999,7.442299 -8.73076,8.967022 a 8.6098802,8.6098802 0 0 1 -1.47802,0.425824 c -0.56868,0.10989 -1.14285,0.02747 -1.9011,-0.43956 l -0.62087,-0.637362 c -1.02198,-2.008239 -0.81594,-5.989004 2.1978,-25.491729 1.24725,-7.450541 1.66483,-10.851636 2.25549,-14.101632 l 0.0247,-0.06319 c 4.09615,-6.483509 12.79669,-22.027447 16.25548,-28.964252 2.39011,-4.796698 4.90659,-9.76922 5.96428,-15.129104 a 13.395589,13.395589 0 0 0 0.13461,-4.6401043 c -0.40934,-2.6923046 -1.47802,-5.7142792 -3.80769,-7.5576837 -1.93681,-1.53571247 -4.54395,-1.47527298 -6.62636,-0.80219683 -2.50824,0.81318583 -4.60714,2.45878833 -6.26922,4.41208283 -4.48077,5.266478 -6.81868,12.326909 -8.9423,18.881847 -2.38187,7.35164 -4.32417,14.870862 -6.1978,22.398326 -3.30494,13.395589 -5.11538,23.365357 -5.52197,31.096118 -0.10989,0.255494 -0.18956,0.486263 -0.29945,0.741757 -7.06043,18.846132 -15.7335,25.423037 -22.98349,26.873587 -3.99175,0.78296 -6.03571,-0.51374 -7.0879,-4.03296 -0.89011,-3.021968 -0.68132,-7.307678 0.97527,-13.005473 l 0.1044,-0.120879 c 10.32965,-4.483512 17.69778,-8.571419 21.88733,-12.326909 4.31319,-3.824172 6.25,-8.195046 4.82692,-12.920315 -0.61813,-2.170327 -2.08791,-3.791205 -4.1978,-4.873621 -5.74999,-2.939557 -12.65108,0.392857 -17.44503,3.73626 -5.20054,3.623622 -9.65384,8.104386 -13.00548,13.510973 a 45.738958,45.738958 0 0 0 -4.35164,9.148341 c -2.74725,7.939552 -5.3434,20.609853 -12.15658,26.428533 -0.15934,0.13736 -0.39835,-0.0192 -0.35165,-0.21978 l 7.4368,-30.977978 A 403.90064,403.90064 0 0 1 233.225,63.296839 c 0.0439,-0.148352 -0.1044,-0.293956 -0.25824,-0.260989 l -13.43406,2.821425 -0.13736,0.137363 -0.63186,2.818678 c -0.0357,0.156593 -0.21978,0.164835 -0.34616,0.04945 -5.66483,-4.980763 -14.38734,-1.269229 -19.45053,2.760986 -7.25823,5.774719 -12.24449,14.414819 -14.64833,23.296677 -0.17308,0.631867 -0.28846,1.285712 -0.46703,1.914833 -1.59341,5.645588 -6.86813,23.439528 -9.45878,23.964248 -1.10714,0.22253 -1.59616,0.0137 -2.01648,-1.41483 -0.66759,-2.22528 0.20329,-8.61813 3.1923,-19.881839 l 7.01373,-26.043926 a 0.21977997,0.21977997 0 0 0 -0.2555,-0.269231 l -13.17031,2.733514 -0.13736,0.131868 -3.89835,15.689542 c -5.72802,22.840622 -11.03021,33.068632 -15.04669,33.901052 -0.76098,0.13461 -1.30219,0.0989 -1.83516,-1.62088 -0.60165,-2.05494 -0.5467,-4.6923 0.32418,-8.09065 l 9.91757,-37.67577 a 0.21977997,0.21977997 0 0 0 -0.25275,-0.269231 l -12.96702,2.719778 a 0.17582397,0.17582397 0 0 0 -0.13736,0.126373 l -4.64835,18.337891 c -0.13186,0.244505 -1.94505,5.722509 -2.14285,6.217019 -7.00549,18.8791 -15.71702,25.48074 -22.9725,26.90381 -3.98901,0.76648 -6.03296,-0.51648 -7.10164,-4.03845 -0.90385,-3.03297 -0.65385,-7.29121 0.99175,-13.00274 l 0.1044,-0.11813 c 10.34339,-4.49725 17.71152,-8.59889 21.88734,-12.29119 4.28296,-3.876363 6.25274,-8.21427 4.82966,-12.912067 -0.63736,-2.197799 -2.08791,-3.821424 -4.1978,-4.901093 -2.09615,-1.170328 -4.51373,-1.620877 -7.63735,-1.36813 -4.71428,0.92857 -9.16208,2.35714 -14.96976,7.582409 -10.975267,10.010971 -15.263724,22.519191 -12.134606,32.986211 1.296701,4.41209 3.813186,7.93956 7.502746,10.46428 3.6868,2.41758 7.65383,3.28021 11.77471,2.46428 7.26647,-1.47252 14.73624,-6.48351 20.92305,-17.58789 0.0714,0.51648 0.2033,1.04945 0.35165,1.57417 0.92307,2.99725 2.60439,5.4945 5.10164,7.29945 2.5,1.7967 5.24175,2.48076 8.03571,1.90933 2.81318,-0.56318 5.08241,-2.61538 6.89559,-5.65933 1.07418,-1.70604 2.32418,-4.28571 3.86538,-7.76922 a 0.19780197,0.19780197 0 0 1 0.37088,0.011 c 0.97802,2.67582 2.55769,4.88186 4.82967,6.79669 l 0.0357,0.0275 c 10.71427,7.21978 15.49998,-3.87362 18.08789,-12.76372 0.0494,-0.17307 0.29121,-0.15659 0.36813,0.0192 a 17.620859,17.620859 0 0 0 5.21703,6.81593 c 3.01099,2.3489 6.24725,3.33791 9.56867,2.67033 3.02747,-0.57693 5.41758,-2.53022 7.26648,-5.47527 0.19505,-0.33791 0.42032,-0.73626 0.65933,-1.14011 l -1.8956,9.06592 -0.0549,0.0934 c -1.39835,1.25275 -4.08242,3.40659 -8.07417,6.51648 l -0.44231,0.35714 c -0.30219,0.17582 -0.65934,0.41209 -1.13461,0.76923 -8.75274,6.57966 -17.09888,13.75822 -22.28569,23.50547 -0.22527,0.42582 -0.85165,1.5934 -1.32967,2.85164 -0.005,0.0137 0.003,0.0275 0,0.0385 -2.28846,5.07143 -2.86813,9.91757 -1.48626,14.50823 0.74176,2.46153 2.30769,4.45054 4.60439,5.78845 2.32143,1.34341 4.83516,1.68681 7.48626,1.18407 6.70328,-1.31319 13.21427,-6.64011 19.62635,-15.34889 6.76647,-9.19504 11.69229,-21.24173 14.80767,-36.14281 l 1.58791,-7.46428 0.0632,-0.0989 c 8.61537,-6.71977 12.89559,-13.70328 15.19504,-19.898319 0.0604,-0.164835 0.28846,-0.142857 0.36538,0.02747 a 18.148331,18.148331 0 0 0 6.53845,7.802179 c 3.67308,2.43132 7.66758,3.2967 11.75823,2.45604 8.02472,-1.56318 16.20878,-7.47252 22.68954,-20.975239 a 0.19505472,0.19505472 0 0 1 0.37088,0.03846 25.769201,25.769201 0 0 0 2.52472,6.58241 c 3.17582,5.596139 6.2445,8.282949 11.19504,7.313169 6.13186,-1.22527 10.95603,-6.587895 15.26647,-16.5714 1.75824,-4.090654 2.93955,-7.7912 3.58516,-11.409327 l 0.0769,-0.412088 0.81868,0.494505 c 1.55494,0.986263 3.07417,1.585163 4.59615,1.835163 a 0.20329647,0.20329647 0 0 1 0.17033,0.186813 26.263706,26.263706 0 0 0 0.96428,5.269225 c 1.19506,3.950544 3.23901,7.219771 6.22252,9.576912 2.98077,2.318678 6.20055,3.233512 9.54944,2.568678 3.18956,-0.609889 5.79121,-2.82692 7.87637,-6.197795 1.27747,-2.005492 2.6978,-4.991753 4.2967,-8.945045 l 0.17033,0.695054 c 0.95329,3.093403 2.60439,5.618126 5.09065,7.483508 2.46978,1.840657 5.22527,2.489008 8.13735,1.881866 4.39835,-0.857142 8.29944,-6.315927 12.09889,-14.771961 l 0.14835,0.565934 c 0.89286,3.005491 2.61813,5.494499 5.08791,7.307683 2.52472,1.774724 5.239,2.458789 8.04944,1.895603 2.81318,-0.543956 5.06867,-2.601646 6.88461,-5.634609 1.06868,-1.725273 2.35988,-4.307688 3.8901,-7.771969 a 0.19780197,0.19780197 0 0 1 0.37088,0.01374 c 0.93132,2.664832 2.56044,4.826917 4.79395,6.785706 l 0.033,0.02473 c 12.59064,8.489001 16.22525,-8.62087 18.44503,-17.464266 l 0.0989,0.390109 c 1.32692,4.414831 3.81868,7.953288 7.49175,10.42856 3.68406,2.434063 7.60988,3.269227 11.70878,2.483514 l 0.033,-0.0055 0.0742,-0.01099 c 0.022,-0.0027 0.0412,-0.01374 0.0604,-0.01648 0.0797,-0.01374 0.1566,-0.02747 0.23627,-0.04945 0.0714,-0.02198 0.14835,-0.05495 0.21978,-0.07692 4.15933,-1.310438 7.31317,-3.483512 10.38735,-6.475267 6.73351,-6.554938 11.51921,-16.10163 14.89009,-24.870851 1.58242,-4.120874 2.29395,-6.126366 3.48076,-9.892846 0.93132,-2.964282 1.35165,-4.63461 4.5989,-5.329664 2.86813,-0.612636 3.77747,-0.780219 6.20054,-1.31868 l -1.59065,3.824172 c -3.03297,7.307684 -6.80219,14.461522 -8.95329,22.10437 -0.95879,3.403842 -1.34615,7.087904 -0.26648,10.453285 0.5934,1.857141 1.65109,3.598897 3.19779,4.780214 2.14561,1.637361 5.04395,2.071426 7.65659,1.620877 4.57692,-0.782966 7.95054,-3.793951 11.11262,-6.99175 a 57.912021,57.912021 0 0 0 8.41208,-10.802185 c 1.02473,-1.697801 2.64835,-4.381863 3.64835,-6.098894 0.42308,-0.728022 0.92307,-1.986262 0.26373,-2.74725 a 1.4999983,1.4999983 0 0 0 -0.28846,-0.258241 z m -67.96695,3.071425 c 1.97252,-4.653841 4.13461,-8.736254 6.49175,-12.101635 3.31868,-4.821423 6.05219,-7.024717 8.13461,-7.436804 1.00549,-0.20055 1.08241,-0.01648 1.30769,0.623625 0.63736,2.269228 -0.33792,5.590653 -4.43956,10.203285 -2.96703,3.269227 -6.68406,6.263729 -11.17581,8.989001 -0.17582,0.107143 -0.39835,-0.08516 -0.31868,-0.277472 z M 294.40077,26.360075 c 2.47802,-12.197788 7.40384,-21.107119 10.99724,-21.491734 0.18956,-0.054945 0.49451,-0.1181317 1.1511,0.7829662 0.98901,1.4368115 1.06868,3.313183 0.99725,4.9313128 a 23.401072,23.401072 0 0 1 -0.40385,3.489007 c -1.78021,9.175814 -5.5879,17.478002 -10.10163,25.329642 -0.64286,1.120877 -1.3544,2.197799 -2.11264,3.241754 l -3.39285,4.675819 c -0.12912,0.175824 -0.40385,0.05495 -0.37088,-0.159341 1.25,-8.543946 2.07692,-15.093389 3.23626,-20.799426 z M 248.6783,80.840781 c 1.93406,-4.670324 4.09889,-8.711528 6.4423,-12.126359 3.34615,-4.824171 6.09614,-7.043948 8.16482,-7.439552 0.98901,-0.181319 1.08242,-0.0055 1.30769,0.651098 0.66484,2.249997 -0.36813,5.568675 -4.43955,10.184054 -2.9533,3.310436 -6.67307,6.304938 -11.15384,9.008232 -0.17857,0.107142 -0.39835,-0.08242 -0.32142,-0.274725 z M 111.72241,108.06052 c 1.96703,-4.65933 4.12087,-8.722507 6.489,-12.107119 3.31868,-4.807686 6.05219,-7.032958 8.15109,-7.439551 0.98901,-0.181319 1.0989,0 1.26374,0.620878 0.6923,2.280217 -0.32418,5.598895 -4.40934,10.211527 -2.96703,3.282955 -6.67307,6.263725 -11.17581,8.988995 -0.17857,0.10989 -0.4011,-0.0824 -0.31868,-0.27473 z m 82.82133,54.48071 c -3.4945,6.82417 -7.81318,10.489 -12.89559,11.47801 -1.5,0.30494 -2.73626,0.0797 -3.80768,-0.50824 a 4.4175773,4.4175773 0 0 1 -2.12638,-2.64835 c -1.26373,-4.20329 0.0192,-9.53296 4.47253,-16.12636 l 0.25274,-0.32967 h -0.0165 c 6.70329,-9.4368 15.60438,-16.94228 17.14284,-18.20602 0.0604,-0.0495 0.0632,-0.12363 0.0412,-0.19231 l 0.11813,0.003 a 0.16483498,0.16483498 0 0 0 0.12088,-0.044 c 1.04395,-0.92307 2.1401,-1.83516 3.23626,-2.78296 l 2.80494,-2.2967 c 0.15659,-0.12637 0.38461,0.022 0.34066,0.21703 -3.24176,14.74724 -6.46703,25.17305 -9.68406,31.43678 z m 15.03021,-63.109811 c -4.62637,11.244491 -8.14011,15.936791 -10.1923,16.362611 -1.86813,0.32418 -3.03846,-0.19231 -3.91208,-3.07417 -1.54121,-5.23076 -0.24451,-13.175803 4.5934,-24.18678 4.87911,-11.173064 9.44504,-16.368113 13.1868,-17.134595 1.51648,-0.282967 2.27472,0.112637 2.82417,1.956041 1.07143,3.62637 -0.77747,12.098888 -6.49999,26.076893 z M 342.51335,68.7364 c -5.3434,14.318665 -9.49999,20.458767 -12.00548,20.969756 -1.87912,0.381868 -3.05219,-0.192308 -3.84889,-2.925821 -1.24726,-4.280215 -0.72803,-9.162077 0.24175,-13.442292 1.67583,-7.403838 4.87088,-14.956027 9.31043,-21.12635 1.99725,-2.774722 4.96154,-6.217025 8.48626,-6.91208 1.25274,-0.26923 1.93406,0.01099 2.46977,1.832416 0.92308,3.032964 -0.36813,10.060428 -4.65384,21.604371 z M 92.23067,95.126479 c -2.348898,9.453281 -3.989006,19.140081 -4.307687,28.890071 -0.03571,1.11264 -0.05495,2.22527 -0.05495,3.34065 0.0027,2.03846 0.07692,4.03022 0.271978,6.0522 0.153846,1.57966 0.21978,3.18406 0.03846,4.76373 -0.370879,3.20329 -1.989009,5.94779 -5.244499,6.82966 l -6.868124,1.86813 a 1.464284,1.464284 0 0 1 -1.83791,-1.02198 L 73.008165,141.0495 C 69.862564,130.34621 62.052134,102.66218 60.302136,96.016588 58.010929,87.307807 55.934009,76.395732 55.6428,76.464413 55.541152,76.486393 55.409284,77.15672 55.381812,77.241885 48.656545,98.140212 44.362593,120.67589 33.173046,139.80774 26.109867,151.89014 15.695044,160.25552 2.0329714,163.51925 1.4175875,163.66486 6.7186343e-6,163.81595 6.7186343e-6,163.81595 L 5.3159347,150.48355 c 0.021978,-0.0549 2.3846126,-6.53845 2.4395576,-6.55768 7.5824087,-2.82967 14.8681147,-6.85989 19.5769007,-13.61537 4.381863,-6.28296 6.859882,-13.65933 9.271968,-20.86536 C 43.104353,90.035826 48.21149,70.601782 51.123575,50.310597 a 1.8901077,1.8901077 0 0 1 1.4478,-1.565933 c 2.618129,-0.593405 8.478012,-1.923074 9.642846,-2.162085 0.153846,-0.03022 0.288461,0.05769 0.307692,0.208791 0.406593,2.945052 0.895604,7.340651 2.513734,14.870862 1.464284,6.807685 3.901094,16.1813 8.71977,33.343368 0.502746,1.796702 1.890108,5.81592 3.516479,10.41207 l 0.535714,-2.58242 c 5.760982,-21.881831 14.107127,-45.587848 30.23623,-64.458705 1.13187,-1.324175 2.32967,-2.593404 3.58516,-3.799447 a 54.771915,54.771915 0 0 1 6.76923,-5.535708 57.13455,57.13455 0 0 1 15.14833,-7.425815 c 2.59066,-0.824175 5.23626,-1.456043 7.91757,-1.895602 a 52.032907,52.032907 0 0 1 7.84065,-0.681318 c 2.51648,-0.02473 5.04121,0.142857 7.52747,0.530219 a 39.010944,39.010944 0 0 1 10.47526,3.148348 c 0.57692,0.271978 1.14011,0.557692 1.69505,0.865383 0.46978,0.263736 1.06594,0.524725 1.46429,0.890109 0.15934,0.145605 0.27472,0.351648 0.26648,0.565934 -0.044,0.906592 -1.60165,0.293955 -2.07143,0.192307 -0.95879,-0.211538 -1.91758,-0.425823 -2.8901,-0.571428 a 43.85984,43.85984 0 0 0 -8.78845,-0.387362 c -2.98352,0.162088 -5.95055,0.612637 -8.85714,1.307691 -2.98076,0.714285 -5.89559,1.689558 -8.71977,2.879117 a 62.590587,62.590587 0 0 0 -8.38186,4.313182 67.197725,67.197725 0 0 0 -7.83515,5.620873 69.422997,69.422997 0 0 0 -7.05494,6.758234 c -8.9835,9.906582 -15.02745,21.736239 -19.076902,33.63183 a 201.79372,201.79372 0 0 0 -4.82417,16.346135 z"
     fill="#f15a22"
     id="path2"
     style="stroke-width:2.74725" />
</svg>
