<svg id="Layer_1" data-name="Layer 1" xmlns="http://www.w3.org/2000/svg" viewBox="0 0 5000 5000"><defs><style>.cls-1,.cls-3{fill:#0bd692;stroke:#231f20;stroke-linecap:square;stroke-linejoin:bevel;}.cls-1,.cls-2{fill-rule:evenodd;}.cls-2{fill:#36393f;}</style></defs><path class="cls-1" d="M2332.59,2201.07V2015.36q45.51,8.79,69.36,21.26,10.52,145.34-69.36,164.45M1473.4,2629.53q65.49,5.41,73.28,75l-63.22-1.14A165.81,165.81,0,0,1,1473.4,2629.53ZM2289,2208.9l-158.85,16.79q-.29-137,21.25-252.86,80.18,11.31,138.73,31.34ZM2054,2444.39q1-133.2,252.82-142.06-211.37,39-196.9,128.64l101.83,14.55Zm240.88,469.34c-16.58,0-31.34-19-40.86-48.59,3.65,3,7.58,4.71,11.67,4.71,20,0,36.19-39.68,36.19-88.67s-16.2-88.64-36.19-88.64a16,16,0,0,0-6.83,1.58c9.36-22,22-35.5,36-35.5,28.73,0,52,57.11,52,127.57S2323.63,2913.73,2294.9,2913.73ZM1738.51,2578q-20.37.16-40.81-.21-2.46-74.74,2.77-153l44.77-.67ZM1592,2425.24a1179.94,1179.94,0,0,0,8,147.75q-15.18-1.22-30.37-2.75a405.36,405.36,0,0,1-30.19-145.43Q1565.69,2425.13,1592,2425.24Zm45.89,0q-5.68,83,2.1,150.43-15.29-.84-30.61-2-6.69-52.62-6.75-148.47Q1620.25,2425.32,1637.87,2425.27Zm50.9,152.37q-19.29-.49-38.55-1.4c-3.06-43.23-4.44-96.82-2.85-151l40.27-.27Q1685.9,2508.75,1688.77,2577.64Zm219.82,152.05q1.29-76.32,67.11-81.67l134.24-5.6-5.58,68.25Q2002.78,2725.36,1908.59,2729.69ZM1941,2579.23q-18.52-232,133.13-330Q1964.87,2353.76,1941,2579.23Zm-89.7-6.14q23.65-93,31.5-152.82,25.76-1,51.5-2.19-20.91,93.47-51.47,152.16C1872.35,2571.29,1861.83,2572.26,1851.31,2573.09Zm-53.34,3.34q12.18-70.82,16.57-153.88l47-1.51q-11.34,85.78-27.6,153.34Q1816,2575.64,1798,2576.43Zm-12.22.51q-18.6.73-37.17,1l10-154,38.1-.85Q1798.53,2511.29,1785.75,2576.94Zm94.86,17.38a651.37,651.37,0,0,1-296.46-4.5A2044.51,2044.51,0,0,0,1880.61,2594.32Zm-78.8,369.12,325.11-26.31c20.31,29.48,46.52,48.13,74.95,52l78.66,10.71a57.58,57.58,0,0,0,13.75.18h0l783.35-82.74-705.8,7c15.66-35.94,25-81.44,25-129.21,0-113.07-52.09-204.73-116.36-204.73l-14.44-.07c64.51-99.08,162.75-54.43,166.2,212.66.08,6.39-25.08,6.2-25.11,12.85,0,6,25.08,18.91,25,25.18l1285.16,16.49-1081.54-83.61,985.34,25.45-958-109.44v-78.55l1037.42,85.06L2663.26,2493l1-156.79,1006.11,210.27L2655.27,2260.17l1015.07,241.55L2658.58,2153.05V2013.64l1040.84,408.67c-3-6.54-1196.3-569.79-1203.48-569.79s-347.14,15.34-350.19,21.88l333.4,54.25V2134h-38l-2.23-132q-112.23-89.82-315.51-98.43-410.22,15.33-525.79,118.58,273.66-61.26,481.06-64.89-5.55,103.32-31.32,261.79l-501.21,26.84q10.82-110.57,35.81-190.19A655,655,0,0,0,1513.66,2295q-14.67,7.59-14.54,32.45l-4.47,218.15a176.64,176.64,0,0,0-15.65,174.5A2392.07,2392.07,0,0,0,2132.33,2747l2.23-125.31,22.38,167.82a3061,3061,0,0,1-646.64-29.11,49.35,49.35,0,0,0,15.66,51.47c43.16,7.39,50.63,7.2,94,12.9,12.3,59.6,64.85,125.37,106.91,130.56l64.16,7.91A53.33,53.33,0,0,0,1801.81,2963.44Zm398.74-309.26c30.83-205.08,146.06-258.43,208.09-116.36Q2298,2390.58,2200.55,2654.18Z"/><path class="cls-2" d="M1096.36,2902.59A1410.85,1410.85,0,0,1,1754,1563.23c456.67-284.52,1035.43-284.52,1492.09,0a1410.84,1410.84,0,0,1,657.59,1339.36,1404,1404,0,1,0-2807.27,0"/><path class="cls-3" d="M1184.82,3114.23h53l60.89,195.51h-46.92l-25.24-99c-4.95-19.52-10.9-42.42-15.6-63.06h-1.2c-4.79,20.64-10.22,43.54-15.17,63.06l-25.41,99h-45.28Zm-20.6,114.54h93.55v34.47h-93.55Z"/><path class="cls-3" d="M1301.22,3213.07c0-65.34,39.76-102.44,90.55-102.44,26.31,0,44.71,12.09,57.11,24.87l-24.36,27.37c-8.43-8.38-17.32-14-32.75-14-25.65,0-44.89,23.59-44.89,62.75,0,40.19,15.84,63.52,46.67,63.52,7.3,0,14.79-2,19-5.78v-33.76h-28.39v-36.07h68v90.16c-13,12.17-36.12,23.66-61.18,23.66C1341,3313.33,1301.22,3279,1301.22,3213.07Z"/><path class="cls-3" d="M1477.15,3272.63h45.66v-121.3h-45.66v-37.1h135.56v37.1h-45.65v121.3h45.65v37.11H1477.15Z"/><path class="cls-3" d="M1653.7,3114.23h44.17v158.4h87v37.11H1653.7Z"/><path class="cls-3" d="M1816.23,3114.23h129.6v37.1h-85.35v39.21H1933v37.1h-72.51v45h88.35v37.11h-132.6Z"/><path class="cls-3" d="M2190,3151.33h-58.61v-37.1h161.46v37.1h-58.61v158.41H2190Z"/><path class="cls-3" d="M2309.74,3114.23h69.51c41.42,0,75.5,14.4,75.5,60.91,0,44.93-34.08,64.27-75.5,64.27h-25.18v70.33h-44.33Zm65.91,90.06c23.24,0,35.71-10,35.71-29.15,0-19.3-12.47-25.79-35.71-25.79h-21.58v54.94Zm26.09-4.9,62.39,110.35h-49.5l-43.51-82Z"/><path class="cls-3" d="M2519.19,3114.23h53l60.88,195.51h-46.91l-25.24-99c-4.95-19.52-10.9-42.42-15.61-63.06h-1.2c-4.78,20.64-10.21,43.54-15.17,63.06l-25.41,99H2458.3Zm-20.59,114.54h93.55v34.47H2498.6Z"/><path class="cls-3" d="M2642.35,3114.23h45.35l41.14,97.2,16.73,43h1c-2-20.58-6.11-48-6.11-71.06v-69.1h42.18v195.51h-45.35l-41.13-97.41-16.74-42.75h-1c2,21.61,6.11,47.81,6.11,70.8v69.36h-42.18Z"/><path class="cls-3" d="M2804.43,3285.1l25.39-30.39c14.78,12.11,33,20.41,52,20.41,18.78,0,27.45-7.28,27.45-16.83,0-14.08-11.62-17.48-30.12-25.23l-25.47-10.87c-21.67-8.23-41.44-24.85-41.44-53.3,0-32.38,29.17-58.26,71.65-58.26a94.74,94.74,0,0,1,64.93,25.6l-22.29,27.89c-13.77-9.88-26-15.27-45.06-15.27-14.57,0-24.46,6-24.46,17.46,0,11.76,13.1,16.06,31.85,23.09l23.92,10.14c25.6,9.6,41.77,25.56,41.77,53.15,0,32.5-27.27,60.64-75.66,60.64A112.61,112.61,0,0,1,2804.43,3285.1Z"/><path class="cls-3" d="M2978.48,3114.23h69.36c42.41,0,76.58,15.35,76.58,62.88,0,46-35.12,66.31-76.58,66.31h-25.11v66.32h-44.25Zm66.79,94.07c24.24,0,35.76-10.86,35.76-31.19s-12.47-27.76-35.76-27.76h-22.54v59Z"/><path class="cls-3" d="M3134.27,3211.08c0-65.33,32.07-100.45,78.63-100.45s78.63,35.12,78.63,100.45c0,66.89-32.06,102.25-78.63,102.25S3134.27,3278,3134.27,3211.08Zm111.9,0c0-40.62-12.88-62.23-33.27-62.23s-33.27,21.61-33.27,62.23c0,42.18,12.88,64,33.27,64S3246.17,3253.26,3246.17,3211.08Z"/><path class="cls-3" d="M3310.52,3114.23H3380c41.42,0,75.5,14.4,75.5,60.91,0,44.93-34.08,64.27-75.5,64.27h-25.17v70.33h-44.34Zm65.91,90.06c23.24,0,35.72-10,35.72-29.15,0-19.3-12.48-25.79-35.72-25.79h-21.57v54.94Zm26.1-4.9,62.38,110.35h-49.5l-43.51-82Z"/><path class="cls-3" d="M3524.37,3151.33h-58.61v-37.1h161.47v37.1h-58.61v158.41h-44.25Z"/><path class="cls-3" d="M3651,3114.23h129.59v37.1h-85.34v39.21h72.51v37.1h-72.51v45h88.34v37.11H3651Z"/><path class="cls-3" d="M3805.21,3285.1l25.39-30.39c14.78,12.11,33,20.41,52,20.41,18.78,0,27.45-7.28,27.45-16.83,0-14.08-11.62-17.48-30.12-25.23l-25.47-10.87c-21.66-8.23-41.43-24.85-41.43-53.3,0-32.38,29.16-58.26,71.64-58.26a94.74,94.74,0,0,1,64.93,25.6l-22.29,27.89c-13.77-9.88-26-15.27-45.06-15.27-14.57,0-24.46,6-24.46,17.46,0,11.76,13.11,16.06,31.85,23.09l23.92,10.14c25.6,9.6,41.77,25.56,41.77,53.15,0,32.5-27.26,60.64-75.66,60.64A112.61,112.61,0,0,1,3805.21,3285.1Z"/></svg>